<?xml version="1.0" encoding="UTF-8" standalone="no"?>
<svg
   xmlns:dc="http://purl.org/dc/elements/1.1/"
   xmlns:cc="http://creativecommons.org/ns#"
   xmlns:rdf="http://www.w3.org/1999/02/22-rdf-syntax-ns#"
   xmlns:svg="http://www.w3.org/2000/svg"
   xmlns="http://www.w3.org/2000/svg"
   xmlns:sodipodi="http://sodipodi.sourceforge.net/DTD/sodipodi-0.dtd"
   xmlns:inkscape="http://www.inkscape.org/namespaces/inkscape"
   width="25.08568mm"
   height="24.7596mm"
   viewBox="0 0 25.08568 24.7596"
   version="1.1"
   id="svg881"
   inkscape:version="1.0.2-2 (e86c870879, 2021-01-15)"
   sodipodi:docname="Icon.svg">
  <title
     id="title1457">Continuous Primate Icon</title>
  <defs
     id="defs875" />
  <sodipodi:namedview
     id="base"
     pagecolor="#ffffff"
     bordercolor="#666666"
     borderopacity="1.0"
     inkscape:pageopacity="0.0"
     inkscape:pageshadow="2"
     inkscape:zoom="3.6923149"
     inkscape:cx="42.120064"
     inkscape:cy="39.050442"
     inkscape:document-units="mm"
     inkscape:current-layer="layer1"
     inkscape:document-rotation="0"
     showgrid="true"
     fit-margin-top="0"
     fit-margin-left="0"
     fit-margin-right="0"
     fit-margin-bottom="0"
     inkscape:window-width="1346"
     inkscape:window-height="1009"
     inkscape:window-x="138"
     inkscape:window-y="265"
     inkscape:window-maximized="0">
    <inkscape:grid
       type="xygrid"
       id="grid1455" />
  </sodipodi:namedview>
  <metadata
     id="metadata878">
    <rdf:RDF>
      <cc:Work
         rdf:about="">
        <dc:format>image/svg+xml</dc:format>
        <dc:type
           rdf:resource="http://purl.org/dc/dcmitype/StillImage" />
        <dc:title>Continuous Primate Icon</dc:title>
      </cc:Work>
    </rdf:RDF>
  </metadata>
  <g
     inkscape:label="Layer 1"
     inkscape:groupmode="layer"
     id="layer1"
     transform="translate(-108.54641,-103.54108)">
    <rect
       style="fill:#34b38a;stroke:#000000;stroke-width:0;stroke-linecap:round;stroke-linejoin:round"
       id="rect1453"
       width="25.070156"
       height="25.070158"
       x="108.61167"
       y="103.60634"
       ry="0"
       rx="0" />
    <path
       d="m 119.38348,118.94366 c 0,-0.37628 0.27594,-0.72748 0.70239,-0.72748 0.40137,0 0.75257,0.32611 0.75257,0.75257 0,0.37628 -0.32611,0.70239 -0.75257,0.70239 a 0.72748223,0.72748223 0 0 1 -0.72748,-0.72748 z m -6.47209,-9.78338 -0.15051,-0.0251 c -0.878,-0.25086 -1.83125,0.50171 -2.10719,1.60548 -0.20068,0.80274 -0.0502,1.63056 0.42646,2.10719 0.0502,0.0502 0.12542,0.0753 0.22577,0.0753 0.0753,0 0.15051,0 0.22577,-0.0753 0.10034,-0.10034 0.10034,-0.30103 0,-0.45154 -0.32612,-0.30103 -0.42646,-0.92817 -0.27595,-1.50514 0.1756,-0.7024 0.67732,-1.20411 1.15394,-1.20411 l -0.30103,1.27937 c -0.0502,0.1756 0.0502,0.3512 0.22578,0.37628 0.17559,0.0502 0.32611,-0.0502 0.35119,-0.25085 l 0.42646,-1.5804 c 0.0502,-0.12542 -0.0502,-0.30102 -0.1756,-0.35119 z m 20.7207,18.78911 v 0.0753 c 0,0.0502 0,0.0753 -0.0502,0.10034 l -0.10034,0.10035 h -0.12543 c -2.75941,0.0753 -5.19272,0.0753 -5.2178,0.0753 -0.1756,0 -0.32611,-0.10035 -0.32611,-0.27595 l -0.25086,-3.51198 a 10.034238,10.034238 0 0 1 -6.47208,2.08211 10.034238,10.034238 0 0 1 -6.42191,-2.10719 c -0.1756,1.75599 -0.27595,3.51198 -0.27595,3.51198 0,0.20068 -0.15051,0.30103 -0.32611,0.30103 l -5.19272,-0.0502 h -0.0251 l -0.12543,-0.0251 -0.10034,-0.10035 a 0.20068475,0.20068475 0 0 1 -0.0753,-0.10034 v -0.12543 c 0.20069,-1.12885 0.90308,-3.16078 1.58039,-5.11746 0.60206,-1.7309 1.2292,-3.56215 1.2292,-4.01369 l 0.0251,-1.65565 -0.0251,-0.0251 v -0.0502 l -0.0251,-0.0502 c -2.38313,-3.46182 -2.05702,-5.76969 -1.37971,-7.12431 0.82783,-1.63057 2.55873,-2.50856 3.81301,-2.50856 h 0.25086 a 9.5325257,9.5325257 0 0 1 6.94871,-3.81301 h 0.20068 c 1.73091,0 4.91678,1.05359 7.02397,3.78792 h 0.22577 c 1.25428,0.0251 3.01027,0.90308 3.78793,2.50856 0.70239,1.35462 1.00342,3.71267 -1.35463,7.1494 l -0.0251,0.0502 v 0.0502 h -0.0251 v 1.65565 c 0,0.50171 0.62714,2.2577 1.25428,4.03878 0.67731,1.95667 1.4048,3.98861 1.55531,5.09237 l 0.0251,0.0753 c 0,-0.0502 0,0 0,0 z M 114.41653,120.8 c 0.12543,-0.67731 0.22577,-0.75257 0.82782,-1.4048 0.37629,-0.3512 0.90309,-0.90308 1.756,-1.88142 0.20068,-0.30102 1.45496,-2.15736 2.05701,-2.88484 0.1756,-0.22577 0.27595,-0.42645 0.27595,-0.62714 0,-0.25086 -0.1756,-0.42645 -0.25086,-0.50171 l -0.1756,-0.0251 c -0.10034,0 -0.25086,0.0502 -0.47663,0.12543 l -0.0502,0.0251 h -0.12542 c -0.0753,0 -0.10035,0 -0.12543,-0.0502 l -0.0753,-0.0753 -0.0251,-0.12543 v -0.10034 c 0,-0.0502 0,-0.10035 0.0502,-0.12543 h 0.0251 c 0.0753,-0.10034 0.25086,-0.37629 0.25086,-0.60206 a 0.25085594,0.25085594 0 0 0 -0.0753,-0.20068 l -0.27594,-0.12543 c -0.15051,0 -0.32611,0.10034 -0.50171,0.1756 l -0.0753,0.0502 c -0.0502,0.0753 -0.12543,0.10034 -0.22577,0.10034 -0.0753,0 -0.15051,-0.0251 -0.22577,-0.10034 -0.0502,-0.0502 -0.0753,-0.12543 -0.0753,-0.22577 0,-0.0753 0.0251,-0.12543 0.0753,-0.1756 l 0.0251,-0.0251 c 0.12542,-0.12543 0.15051,-0.20068 0.15051,-0.30103 0,-0.10034 -0.20069,-0.12542 -0.27594,-0.12542 h -0.0753 c -0.60205,0 -1.25428,0.45154 -1.60548,0.75256 l -0.0753,0.0502 c -0.37629,0.3512 -1.00343,1.25428 -1.20411,1.60548 0,0 -0.0502,0 -0.0502,0.0502 l -0.10035,0.0753 -0.15051,0.0251 h -0.0753 l -0.0752,-0.0753 -0.10035,-0.10034 v -0.30103 c 0.0251,-0.10034 0.10035,-0.32611 0.10035,-0.50171 0,-0.1756 -0.0753,-0.32611 -0.15052,-0.42646 -0.0753,-0.10034 -0.1756,-0.12542 -0.27594,-0.12542 -0.15051,0 -0.27594,0.12542 -0.27594,0.27594 -0.10034,0.67731 -0.45154,1.5553 -0.45154,1.60548 -0.1756,0.30102 -0.27594,2.20753 -0.27594,4.31472 a 22.827891,22.827891 0 0 1 -1.25428,4.21438 c -0.60206,1.65565 -1.25428,3.51198 -1.50514,4.66592 1.98176,-0.0502 3.78793,0 4.46524,0 0.0753,-1.25428 0.47662,-6.07072 0.67731,-6.89854 z m 0.30103,2.9601 a 6.0205426,6.0205426 0 0 0 1.15393,0.90308 14.047933,14.047933 0 0 1 -0.20068,-2.38313 c 0,-1.0536 0.10034,-2.00685 0.3512,-2.83468 -0.12543,0.15052 -0.25086,0.25086 -0.32612,0.37629 -0.57696,0.57697 -0.57696,0.57697 -0.70239,1.12885 -0.0753,0.3512 -0.20069,1.50514 -0.30103,2.7845 v 0.0251 z m 10.86206,1.25428 c 0.15051,-0.62714 0.27594,-1.60548 0.27594,-2.73433 a 7.5256782,7.5256782 0 0 0 -1.15394,-4.3649 c 0,-0.0251 -1.45496,-2.15736 -2.05702,-2.90993 a 1.6556492,1.6556492 0 0 1 -0.42645,-1.02851 c 0,-0.50171 0.30103,-0.90308 0.62714,-1.05359 0.12543,-0.0502 0.25085,-0.10034 0.40137,-0.10034 l -0.0502,-0.3512 c 0,-0.25086 0.12543,-0.50171 0.32611,-0.67731 l 0.0753,-0.0753 a 1.0034238,1.0034238 0 0 1 0.60205,-0.1756 h 0.25086 c 0,-0.30103 0.25085,-0.60206 0.82782,-0.65223 h 0.12543 c 0.82782,0 1.63056,0.57697 2.05702,0.95326 l 0.72748,0.82782 c 0.0502,-0.15051 0.12543,-0.30103 0.25086,-0.45154 a 1.0034238,1.0034238 0 0 1 0.72748,-0.30103 c 0.45154,0 0.80274,0.3512 0.90308,0.77766 0.0753,0.60205 0.40137,1.42988 0.40137,1.45496 0.15051,0.25086 0.25086,1.00342 0.25086,1.85633 1.80616,-2.88484 1.50513,-4.81643 0.95325,-5.9202 -0.67731,-1.32953 -2.00685,-2.05701 -3.08553,-2.15736 0.15051,0.20069 0.30103,0.42646 0.40137,0.67731 l 0.0251,0.15052 c 0,0.12543 -0.0502,0.22577 -0.15052,0.27594 -0.15051,0.10034 -0.3512,0.0251 -0.42645,-0.12543 a 9.0057282,9.0057282 0 0 0 -7.27483,-4.74118 h -0.17559 a 9.0308138,9.0308138 0 0 0 -7.29991,4.76627 c -0.0753,0.10034 -0.1756,0.15051 -0.30103,0.15051 h -0.12543 c -0.12543,-0.0753 -0.1756,-0.1756 -0.1756,-0.30103 l 0.0251,-0.12542 c 0.15051,-0.25086 0.25085,-0.50172 0.40137,-0.7024 -1.0536,0.10034 -2.40822,0.82782 -3.08553,2.15736 -0.57697,1.10377 -0.82782,3.03536 0.95325,5.9202 0.0502,-0.82782 0.15052,-1.63056 0.27594,-1.88142 0,0 0.32612,-0.82782 0.40137,-1.37971 a 0.90308138,0.90308138 0 0 1 0.90308,-0.82782 c 0.25086,0 0.50172,0.12543 0.7024,0.32611 0.10034,0.10034 0.1756,0.25086 0.25086,0.42646 0.20068,-0.30103 0.47662,-0.60206 0.67731,-0.80274 l 0.0502,-0.0251 c 0.40137,-0.37629 1.22919,-0.95325 2.03193,-0.95325 h 0.15052 c 0.55188,0.0502 0.80274,0.35119 0.82782,0.67731 l 0.22577,-0.0251 a 1.0034238,1.0034238 0 0 1 0.62714,0.1756 c 0,0.0502 0.0502,0.0502 0.0502,0.0753 0.22577,0.15051 0.32612,0.40137 0.32612,0.70239 0,0.10034 0,0.22577 -0.0502,0.32611 l 0.32612,0.0502 0.10034,0.0251 c 0.30103,0.15052 0.60205,0.55189 0.60205,1.0536 0,0.32611 -0.12542,0.7024 -0.40137,1.00342 -0.62714,0.77766 -2.05701,2.90993 -2.0821,2.90993 -1.00342,1.27937 -1.17902,3.08553 -1.17902,4.3649 0,1.12885 0.15051,2.10719 0.27594,2.75941 1.25428,0.57697 2.80958,0.90308 4.51541,0.92817 1.75599,0.0251 3.33638,-0.30103 4.59066,-0.92817 z m 1.88142,-1.25428 c -0.12543,-1.30445 -0.25086,-2.45839 -0.32611,-2.80959 -0.10035,-0.50171 -0.10035,-0.50171 -0.67732,-1.12885 -0.12542,-0.12543 -0.25085,-0.22577 -0.35119,-0.37629 0.25085,0.82783 0.37628,1.756 0.37628,2.83468 0,0.90308 -0.10034,1.75599 -0.20068,2.38313 a 6.0205426,6.0205426 0 0 0 1.12885,-0.90308 z m 5.51883,3.86318 c -0.25086,-1.10377 -0.90308,-3.01027 -1.50514,-4.64084 -0.75256,-2.2577 -1.25428,-3.66249 -1.25428,-4.23946 0,-2.05702 -0.10034,-4.0137 -0.25085,-4.26455 -0.0502,-0.0753 -0.42646,-0.92817 -0.50171,-1.60548 -0.0251,-0.1756 -0.12543,-0.27594 -0.27595,-0.27594 -0.0753,0 -0.20068,0.0502 -0.27594,0.15051 -0.10034,0.0753 -0.15051,0.20069 -0.15051,0.40137 0,0.20068 0.0502,0.40137 0.10034,0.5268 v 0.1756 c 0,0.1756 -0.12543,0.30102 -0.30103,0.30102 h -0.12542 l -0.12543,-0.10034 v -0.0753 c -0.22577,-0.3512 -0.82783,-1.25428 -1.20411,-1.60548 l -0.0753,-0.0502 c -0.37628,-0.30102 -1.00342,-0.75256 -1.60547,-0.75256 h -0.0753 c -0.0753,0 -0.27594,0 -0.27594,0.12542 0,0.0502 0.0251,0.1756 0.10034,0.25086 0.10034,0.0753 0.15051,0.15051 0.15051,0.25086 0,0.17559 -0.15051,0.32611 -0.30102,0.32611 -0.0753,0 -0.12543,-0.0502 -0.1756,-0.0753 l -0.15052,-0.0753 c -0.15051,-0.0753 -0.32611,-0.1756 -0.47662,-0.1756 -0.0502,0 -0.15052,0 -0.25086,0.12543 a 0.25085594,0.25085594 0 0 0 -0.10034,0.20068 c 0,0.1756 0.12543,0.42646 0.22577,0.55189 a 0.30102713,0.30102713 0 0 1 -0.1756,0.55188 h -0.10034 l -0.15052,-0.0753 -0.32611,-0.0753 c -0.0753,0 -0.12543,0 -0.1756,0.0502 -0.10034,0.0502 -0.27594,0.22577 -0.27594,0.47663 a 1.0034238,1.0034238 0 0 0 0.27594,0.62714 c 0.57697,0.70239 1.83125,2.55873 2.08211,2.88484 0.85291,1.00342 1.3797,1.50513 1.7309,1.88142 0.62714,0.65222 0.7024,0.75257 0.82783,1.40479 0.20068,0.82783 0.57697,5.61917 0.67731,6.89854 z m -10.91223,-7.95214 c 0.40137,0 0.75256,-0.30102 0.75256,-0.72748 0,-0.37628 -0.32611,-0.72748 -0.75256,-0.72748 a 0.72748223,0.72748223 0 0 0 -0.72749,0.75257 c 0,0.37628 0.32612,0.70239 0.75257,0.70239 z m 2.23261,1.65565 v 0.25086 c 0,1.37971 -1.40479,2.45839 -3.23604,2.50856 -1.83125,-0.0502 -3.26113,-1.12885 -3.26113,-2.48347 0,-0.0753 0,-0.15052 0.0502,-0.25086 v -0.0502 c 0.0251,-0.15051 0.15051,-0.25086 0.30102,-0.25086 h 5.81986 c 0.15051,0 0.30103,0.10035 0.32611,0.25086 z m -0.60205,0.27595 h -5.26798 c 0.0251,1.00342 1.20411,1.83124 2.63399,1.85633 1.42988,-0.0251 2.6089,-0.82783 2.63399,-1.85633 z m 5.79477,-10.2851 c 0.0502,0.1756 0.25086,0.25086 0.37629,0.25086 0.15051,-0.0753 0.25085,-0.25086 0.22577,-0.37629 l -0.42646,-1.48005 c 0.50171,0 1.00342,0.50172 1.20411,1.20411 0.15051,0.57697 0.0502,1.20411 -0.27594,1.50514 -0.12543,0.12543 -0.12543,0.32611 0,0.45154 0.0502,0.0502 0.12543,0.0753 0.22577,0.0753 0.0752,0 0.15051,0 0.22577,-0.0753 0.47662,-0.47663 0.62714,-1.27937 0.45154,-2.10719 -0.32611,-1.10377 -1.25428,-1.83125 -2.10719,-1.60548 -0.0502,0 -0.12543,0 -0.20069,0.0753 -0.15051,0.0502 -0.22577,0.22577 -0.17559,0.37628 z"
       id="path14"
       style="stroke-width:0.250856" />
  </g>
</svg>
